<svg xmlns="http://www.w3.org/2000/svg" viewBox="0 0 512 512" fill="#667eea">
  <defs>
    <linearGradient id="grad1" x1="0%" y1="0%" x2="100%" y2="100%">
      <stop offset="0%" style="stop-color:#667eea;stop-opacity:1" />
      <stop offset="100%" style="stop-color:#764ba2;stop-opacity:1" />
    </linearGradient>
  </defs>
  
  <!-- Background circle -->
  <circle cx="256" cy="256" r="240" fill="url(#grad1)" stroke="#ffffff" stroke-width="16"/>
  
  <!-- Document icon -->
  <path d="M160 80c0-26.5 21.5-48 48-48h96c26.5 0 48 21.5 48 48v48h48c26.5 0 48 21.5 48 48v224c0 26.5-21.5 48-48 48H160c-26.5 0-48-21.5-48-48V176c0-26.5 21.5-48 48-48h48V80z" fill="#ffffff"/>
  
  <!-- Document fold -->
  <path d="M208 80v48c0 26.5 21.5 48 48 48h48v-48c0-26.5-21.5-48-48-48h-48z" fill="#f0f0f0"/>
  
  <!-- Markdown content lines -->
  <rect x="180" y="200" width="152" height="8" rx="4" fill="#667eea"/>
  <rect x="180" y="220" width="120" height="8" rx="4" fill="#667eea"/>
  <rect x="180" y="240" width="140" height="8" rx="4" fill="#667eea"/>
  <rect x="180" y="260" width="100" height="8" rx="4" fill="#667eea"/>
  <rect x="180" y="280" width="160" height="8" rx="4" fill="#667eea"/>
  
  <!-- Code block indicator -->
  <rect x="180" y="320" width="152" height="40" rx="6" fill="#2d3748"/>
  <rect x="190" y="330" width="132" height="20" rx="3" fill="#4a5568"/>
</svg>
